<svg width="65" height="64" viewBox="0 0 65 64" fill="none" xmlns="http://www.w3.org/2000/svg">
<g clip-path="url(#clip0_151_294)">
<path fill-rule="evenodd" clip-rule="evenodd" d="M21.851 0C15.963 0 11.1843 4.77867 11.1843 10.6667C11.1843 16.5547 15.963 21.3333 21.851 21.3333C15.963 21.3333 11.1843 26.112 11.1843 32C11.1843 37.888 15.963 42.6667 21.851 42.6667C15.963 42.6667 11.1843 47.4453 11.1843 53.3333C11.1843 59.2213 15.963 64 21.851 64C27.739 64 32.5177 59.2213 32.5177 53.3333L32.5177 32C32.5177 37.888 37.2963 42.6667 43.1843 42.6667C49.0723 42.6667 53.851 37.888 53.851 32C53.851 26.112 49.0723 21.3333 43.1843 21.3333C49.0723 21.3333 53.851 16.5547 53.851 10.6667C53.851 4.77867 49.0723 0 43.1843 0H21.851ZM43.1843 21.3333H32.5177L32.5177 32C32.5177 26.112 37.2963 21.3333 43.1843 21.3333Z" fill="#00D2DF" fill-opacity="0.7"/>
</g>
<defs>
<clipPath id="clip0_151_294">
<rect width="64" height="64" fill="white" transform="translate(0.434326)"/>
</clipPath>
</defs>
</svg>
