<svg width="65" height="64" viewBox="0 0 65 64" fill="currentColor" xmlns="http://www.w3.org/2000/svg">
<path fill-rule="evenodd" clip-rule="evenodd" d="M63.2284 29.1489L35.2845 1.20714C33.6764 -0.402379 31.0662 -0.402379 29.456 1.20714L23.6534 7.00968L31.0142 14.3705C32.7249 13.7925 34.6862 14.1802 36.0499 15.5439C37.42 16.9161 37.8048 18.8943 37.2128 20.6105L44.3068 27.7045C46.023 27.1132 48.0033 27.4959 49.3741 28.8688C51.2898 30.7837 51.2898 33.8876 49.3741 35.804C47.4577 37.7204 44.3538 37.7204 42.4367 35.804C40.9958 34.3616 40.6397 32.2451 41.3693 30.4698L34.7536 23.8541L34.7529 41.2638C35.2199 41.4956 35.6609 41.8039 36.0499 42.1915C37.9656 44.1065 37.9656 47.2103 36.0499 49.1281C34.1335 51.0438 31.0283 51.0438 29.1147 49.1281C27.199 47.2103 27.199 44.1065 29.1147 42.1915C29.588 41.7189 30.1357 41.3615 30.72 41.1213V23.5493C30.1357 23.3106 29.5887 22.9553 29.1147 22.4791C27.6632 21.0297 27.3142 18.8999 28.0578 17.1176L20.8024 9.86074L1.64199 29.0197C0.0317718 30.6306 0.0317718 33.2408 1.64199 34.8504L29.5859 62.7929C31.1947 64.4024 33.8042 64.4024 35.4151 62.7929L63.2284 34.9803C64.8379 33.3701 64.8379 30.7585 63.2284 29.1489Z" fill="currentColor" fill-opacity="0.7"/>
</svg>
